<?xml version="1.0" encoding="UTF-8" standalone="no"?>
<!DOCTYPE svg PUBLIC "-//W3C//DTD SVG 20010904//EN"
              "http://www.w3.org/TR/2001/REC-SVG-20010904/DTD/svg10.dtd">

<svg xmlns="http://www.w3.org/2000/svg"
     width="8.12802mm" height="6.35001mm"
     viewBox="0 0 96 75">
  <path id="Auswahl"
        fill="#05878a" stroke="black" stroke-width="1"
        d="M 42.00,3.00
           C 37.22,10.73 29.70,11.68 21.77,14.42
             19.62,15.16 18.25,16.41 19.15,18.85
             19.15,18.85 28.80,32.00 28.80,32.00
             28.80,32.00 52.00,73.00 52.00,73.00
             52.00,73.00 57.00,71.00 57.00,71.00
             56.41,63.17 64.43,42.61 67.90,35.00
             70.60,29.08 75.12,24.75 74.00,18.00
             65.51,18.34 56.52,10.43 48.00,8.00
             47.12,4.12 45.68,3.93 42.00,3.00 Z
           M 42.00,10.00
           C 42.00,10.00 46.42,30.00 46.42,30.00
             46.42,30.00 50.00,61.00 50.00,61.00
             44.17,54.49 39.97,46.38 35.32,39.00
             31.53,32.99 25.68,24.70 24.00,18.00
             24.00,18.00 42.00,10.00 42.00,10.00 Z
           M 55.00,62.00
           C 51.58,56.05 51.56,50.64 50.58,44.00
             50.58,44.00 47.00,11.00 47.00,11.00
             47.00,11.00 63.00,18.25 63.00,18.25
             63.00,18.25 68.38,22.39 68.38,22.39
             68.38,22.39 65.92,34.00 65.92,34.00
             65.92,34.00 55.00,62.00 55.00,62.00 Z" />
</svg>
