<?xml version="1.0" encoding="UTF-8" standalone="no"?>
<!DOCTYPE svg PUBLIC "-//W3C//DTD SVG 20010904//EN"
              "http://www.w3.org/TR/2001/REC-SVG-20010904/DTD/svg10.dtd">

<svg xmlns="http://www.w3.org/2000/svg"
     width="8.12802mm" height="8.12802mm"
     viewBox="0 0 96 96">
	<path id="Auswahl #1"
        fill="#05878a" stroke="black" stroke-width="1"
        d="M 42.00,13.00
           C 37.21,21.40 26.17,22.43 18.00,26.00
             19.54,30.34 23.65,34.78 26.32,39.00
             26.32,39.00 43.81,67.00 43.81,67.00
             45.10,69.08 51.04,80.24 52.24,80.83
             56.03,82.72 57.52,73.42 58.42,71.00
             58.42,71.00 69.20,43.00 69.20,43.00
             69.20,43.00 74.13,32.07 74.13,32.07
             74.37,28.56 69.54,27.84 67.00,26.70
             67.00,26.70 51.13,18.66 51.13,18.66
             46.68,15.80 48.05,14.83 42.00,13.00 Z
           M 50.00,69.00
           C 50.00,69.00 39.32,53.00 39.32,53.00
             39.32,53.00 24.00,28.00 24.00,28.00
             27.27,26.69 39.06,20.93 41.69,21.78
             44.45,22.68 44.82,30.38 45.25,33.00
             45.25,33.00 50.00,69.00 50.00,69.00 Z
           M 48.00,21.00
           C 48.00,21.00 69.00,32.00 69.00,32.00
             69.00,32.00 55.00,71.00 55.00,71.00
             52.46,66.02 49.79,42.18 48.73,35.00
             48.06,30.43 46.29,25.44 48.00,21.00 Z
           M 51.00,69.00
           C 51.00,69.00 51.00,70.00 51.00,70.00
             51.00,70.00 50.00,69.00 50.00,69.00
             50.00,69.00 51.00,69.00 51.00,69.00 Z" />
  <path id="Auswahl"
        fill="#e1a730" stroke="black" stroke-width="1"
        d="M 46.00,59.00
           C 41.53,59.09 36.93,60.39 33.06,57.49
             26.08,52.26 27.28,41.19 35.04,37.16
             38.28,35.70 41.60,36.56 45.00,37.16
             45.00,37.16 45.00,32.00 45.00,32.00
             39.22,31.55 33.45,30.78 28.21,34.23
             21.80,38.43 18.71,54.31 27.21,61.20
             30.28,63.69 42.01,66.62 45.01,63.19
             45.99,62.06 45.89,60.39 46.00,59.00 Z
           M 56.00,44.00
           C 56.00,44.00 32.00,44.00 32.00,44.00
             32.00,44.00 33.02,50.40 33.02,50.40
             33.02,50.40 39.00,52.00 39.00,52.00
             39.00,52.00 56.00,52.00 56.00,52.00
             56.08,57.93 55.91,59.36 62.00,61.00
             62.00,61.00 63.00,52.00 63.00,52.00
             75.98,53.05 65.85,61.07 77.00,62.00
             77.87,49.93 76.76,44.13 63.00,44.00
             61.89,37.67 57.11,37.67 56.00,44.00 Z" />
</svg>
