<?xml version="1.0" encoding="UTF-8" standalone="no"?>
<!DOCTYPE svg PUBLIC "-//W3C//DTD SVG 20010904//EN"
              "http://www.w3.org/TR/2001/REC-SVG-20010904/DTD/svg10.dtd">

<svg xmlns="http://www.w3.org/2000/svg"
     width="0.32in" height="0.32in"
     viewBox="0 0 96 96">
  <path id="Auswahl"
        fill="black" stroke="black" stroke-width="1"
        d="M 35.00,7.52
           C 20.92,11.27 13.63,16.25 6.42,29.00
             3.68,33.85 2.19,36.32 2.02,42.00
             1.91,45.34 0.14,55.30 3.30,56.83
             5.99,58.13 7.94,55.18 8.57,52.98
             10.10,47.61 7.01,45.28 11.78,36.00
             13.12,33.41 16.58,27.19 18.39,25.18
             22.89,20.17 34.27,15.00 41.00,14.09
             41.00,14.09 51.00,14.09 51.00,14.09
             61.29,14.02 72.86,17.22 79.20,26.02
             83.53,32.02 85.46,40.79 86.58,48.00
             87.69,55.16 88.25,57.67 87.59,65.00
             87.42,67.00 87.07,69.76 89.31,70.83
             94.82,73.47 94.99,63.81 95.00,61.00
             95.02,52.96 94.10,44.86 92.34,37.00
             88.38,19.43 75.40,7.22 57.00,7.00
             57.00,7.00 43.00,7.00 43.00,7.00
             39.67,7.01 38.34,6.99 35.00,7.52 Z
           M 43.00,22.44
           C 41.05,22.87 38.15,23.25 37.17,25.29
             35.13,29.54 41.54,29.96 44.00,29.62
             48.45,29.27 51.39,28.48 56.00,29.62
             68.64,32.39 74.13,45.15 75.50,57.00
             76.77,65.14 70.47,72.48 75.50,74.83
             81.20,77.70 82.96,64.26 83.00,61.00
             83.12,50.30 79.15,33.41 69.96,26.85
             62.32,21.40 51.95,21.28 43.00,22.44 Z
           M 26.00,29.17
           C 14.72,36.44 17.59,51.87 13.44,63.00
             12.35,65.93 6.75,73.66 11.31,75.83
             15.12,77.65 18.89,70.71 20.05,68.00
             23.16,60.69 22.78,52.57 24.92,45.00
             26.74,38.56 29.85,35.76 30.30,33.02
             30.89,29.41 28.82,28.90 26.00,29.17 Z
           M 42.00,37.84
           C 28.86,43.18 32.42,54.83 29.21,66.00
             28.39,68.87 24.22,75.88 28.31,77.83
             32.59,79.87 35.75,71.98 36.48,69.00
             38.46,60.83 36.87,46.73 47.00,44.49
             48.85,43.97 52.05,43.86 53.82,44.49
             61.24,47.71 60.82,60.63 59.55,67.00
             58.99,69.83 56.76,76.12 60.30,77.83
             63.04,79.16 64.92,76.09 65.74,73.98
             67.11,70.43 68.11,61.89 67.96,58.00
             67.70,51.41 65.27,41.34 58.96,37.84
             55.67,36.29 45.72,36.88 42.00,37.84 Z
           M 48.30,54.17
           C 45.09,57.34 46.26,59.79 45.71,64.00
             45.22,67.79 43.87,73.37 42.64,77.00
             41.93,79.11 39.63,84.12 39.70,85.94
             39.82,88.74 42.30,90.17 44.79,88.92
             49.86,86.38 52.86,69.44 52.99,64.00
             53.08,59.92 54.00,53.56 48.30,54.17 Z" />
</svg>
